<?xml version="1.0" encoding="UTF-8"?>
<svg id="Capa_2" data-name="Capa 2" xmlns="http://www.w3.org/2000/svg" viewBox="0 0 398.54 400.06">
  <defs>
    <style>
      .cls-1 {
        fill: #fefefe;
      }

      .cls-2 {
        fill: #fafafa;
      }

      .cls-3 {
        fill: #08311f;
      }

      .cls-4 {
        fill: #f7f7f7;
      }
    </style>
  </defs>
  <g id="Capa_191" data-name="Capa 191">
    <g>
      <path class="cls-3" d="M256.78,47.07c-4.86,28.1-14.68-26.98-32.01,9.15l-9.67,5.69C180.79,47.71,40.89.54,67.29,78.45c-17.25,15.7-23.06,33.87-17.45,54.51-14.48,14.08-15.99,31.74-4.54,52.99-17.34,29.51-15.3,48.35,6.13,56.51l1.85,10.4c7.54-14.98,64.31-14.33,73.17,0,14.13-13.69,23.63,13.9,18.41,28.62-29.09,50.93-4.25,144.68,24.8,30.85,8.8-18.76,39.11-54.32,59.69-50.32l.81,24.1,3.76,3.34c-7.35,7.76-21.87,22.42-26.78,30.39-22.77,37.02-8.5,88.63-66.73,79.08-54.87-9-46.56-84.17-34.54-123.19H39.56c-1.33,0-20.13-11.23-22.93-13.66-27.64-23.97-12.95-53.96-10.96-84.64,1.2-18.46-9.46-34.56,7.69-55.94.96-30.41,17.32-93.99,45.18-110.31C90.54-7.56,158.27.24,192.7,12.83c22.11,8.08,44.04,25.47,64.08,34.24Z"/>
      <path class="cls-3" d="M284.22,28.78l22.84,9.1-31.99-4.53c1.5-6.03,4.74-4.15,9.15-4.57Z"/>
      <g>
        <path class="cls-3" d="M284.22,28.78c36.35-3.45,77.4,2.54,114.33,0v224.08h-125.76c-2.67,0-34.08,31.53-38.87,36.58-20.22,6.48-13.44-15.78-4.57-27.44-6.76-17.89,21.27-38.7,38.18-43.64,3.22-48.98,1.16-96.93-6.17-143.85-8.38-8.37-17.52-12.94-27.44-13.72-8.8,8.66-10.9,7.65-9.15-4.57-9.58-18.56,1.09-21.6,32.01-9.15,2.57,1.13,17.63,5.26,18.26,4.56.93-5.64-1.21-13.3.03-18.28,37.03,6.17,40.08,4.65,9.15-4.57Z"/>
        <path class="cls-1" d="M224.77,56.22c2.98,1.39,6.13,3.08,9.15,4.57,9.59-.3,18.74,4.28,27.44,13.72,1.39,1.53,11.17-2.75,13.73,11.42,2.32,12.83,2.75,125.9.18,136.45-.98,4.03-14.9,7.1-20.82,12.14-9.78,8.32-16.82,19.42-25.11,27.49-12.79,12.46-39.19,31.72-47.68,46.07-12.23,20.66-16.9,91.28-50.49,58.95-30.28-29.16,14.58-83.58,4.51-104.9-.97-2.05-8.58-9.26-9.23-9.26H53.28c-2.77,0-17.79-8.2-20.77-11.22-21.77-22.1,2.41-39.63,3.75-55.88.73-8.91-11.18-18.83-8.22-35.59,1.78-10.08,11.7-13.43,13.15-19.36,1.87-7.64-5.85-16.06-2.09-28.99,2.96-10.2,19.08-19.69,19.57-24.93.85-9.11-13.37-20.68,1.23-36.92,28.94-32.17,129.9-.13,164.87,16.25Z"/>
        <path class="cls-4" d="M317.33,71.04c22.12-22.13,62.1,14.46,35.29,37.58-27.81,23.99-54.47-18.4-35.29-37.58Z"/>
      </g>
      <rect class="cls-3" x="279.64" y="88.23" width="4.57" height="128.04"/>
      <rect class="cls-3" x="284.22" y="239.14" width="96.03" height="4.57"/>
      <path class="cls-3" d="M233.91,60.79l2.71-3.51c20.71-1.76,18.18,10.02,24.73,17.23-11.95.44-19.51-9.79-27.44-13.72Z"/>
      <path class="cls-2" d="M110.42,239.18c1.07,7.98-10.38,4.3-15.93,4.53-14.44.59-29.06-.37-43.47-.05-1.07-7.98,10.38-4.3,15.93-4.53,14.44-.59,29.06.37,43.47.05Z"/>
    </g>
  </g>
</svg>