<?xml version="1.0" encoding="UTF-8"?>
<svg id="Capa_2" data-name="Capa 2" xmlns="http://www.w3.org/2000/svg" viewBox="0 0 79.81 80.11">
  <defs>
    <style>
      .cls-1 {
        fill: #fefefe;
      }

      .cls-2 {
        fill: #fafafa;
      }

      .cls-3 {
        fill: #08311f;
      }

      .cls-4 {
        fill: #f7f7f7;
      }
    </style>
  </defs>
  <g id="Capa_191" data-name="Capa 191">
    <g>
      <path class="cls-3" d="M51.42,9.43c-.97,5.63-2.94-5.4-6.41,1.83l-1.94,1.14C36.2,9.55,8.19.11,13.48,15.71c-3.45,3.14-4.62,6.78-3.49,10.91-2.9,2.82-3.2,6.36-.91,10.61-3.47,5.91-3.06,9.68,1.23,11.32l.37,2.08c1.51-3,12.88-2.87,14.65,0,2.83-2.74,4.73,2.78,3.69,5.73-5.83,10.2-.85,28.97,4.97,6.18,1.76-3.76,7.83-10.88,11.95-10.08l.16,4.83.75.67c-1.47,1.55-4.38,4.49-5.36,6.08-4.56,7.41-1.7,17.75-13.36,15.84-10.99-1.8-9.32-16.85-6.92-24.67H7.92c-.27,0-4.03-2.25-4.59-2.73-5.53-4.8-2.59-10.8-2.19-16.95.24-3.7-1.89-6.92,1.54-11.2.19-6.09,3.47-18.82,9.05-22.09C18.13-1.51,31.69.05,38.59,2.57c4.43,1.62,8.82,5.1,12.83,6.86Z"/>
      <path class="cls-3" d="M56.91,5.76l4.57,1.82-6.41-.91c.3-1.21.95-.83,1.83-.92Z"/>
      <g>
        <path class="cls-3" d="M56.91,5.76c7.28-.69,15.5.51,22.89,0v44.87h-25.18c-.53,0-6.82,6.31-7.78,7.33-4.05,1.3-2.69-3.16-.92-5.49-1.35-3.58,4.26-7.75,7.65-8.74.64-9.81.23-19.41-1.24-28.81-1.68-1.68-3.51-2.59-5.49-2.75-1.76,1.74-2.18,1.53-1.83-.92-1.92-3.72.22-4.33,6.41-1.83.51.23,3.53,1.05,3.66.91.19-1.13-.24-2.66,0-3.66,7.42,1.24,8.03.93,1.83-.92Z"/>
        <path class="cls-1" d="M45.01,11.26c.6.28,1.23.62,1.83.92,1.92-.06,3.75.86,5.49,2.75.28.31,2.24-.55,2.75,2.29.47,2.57.55,25.21.04,27.32-.2.81-2.98,1.42-4.17,2.43-1.96,1.67-3.37,3.89-5.03,5.51-2.56,2.5-7.85,6.35-9.55,9.22-2.45,4.14-3.39,18.28-10.11,11.8-6.06-5.84,2.92-16.74.9-21.01-.19-.41-1.72-1.85-1.85-1.85h-14.65c-.55,0-3.56-1.64-4.16-2.25-4.36-4.42.48-7.94.75-11.19.15-1.78-2.24-3.77-1.65-7.13.36-2.02,2.34-2.69,2.63-3.88.37-1.53-1.17-3.22-.42-5.8.59-2.04,3.82-3.94,3.92-4.99.17-1.82-2.68-4.14.25-7.39,5.79-6.44,26.01-.03,33.02,3.25Z"/>
        <path class="cls-4" d="M63.54,14.22c4.43-4.43,12.43,2.9,7.07,7.53-5.57,4.8-10.91-3.68-7.07-7.53Z"/>
      </g>
      <rect class="cls-3" x="56" y="17.67" width=".92" height="25.64"/>
      <rect class="cls-3" x="56.91" y="47.89" width="19.23" height=".92"/>
      <path class="cls-3" d="M46.84,12.17l.54-.7c4.15-.35,3.64,2.01,4.95,3.45-2.39.09-3.91-1.96-5.49-2.75Z"/>
      <path class="cls-2" d="M22.11,47.9c.21,1.6-2.08.86-3.19.91-2.89.12-5.82-.07-8.7,0-.21-1.6,2.08-.86,3.19-.91,2.89-.12,5.82.07,8.7,0Z"/>
    </g>
  </g>
</svg>