<?xml version="1.0" encoding="UTF-8"?>
<svg id="Capa_2" data-name="Capa 2" xmlns="http://www.w3.org/2000/svg" viewBox="0 0 434.47 434.49">
  <defs>
    <style>
      .cls-1 {
        fill: #5d6c00;
        stroke: #000;
        stroke-miterlimit: 10;
        stroke-width: 4.23px;
      }

      .cls-2 {
        fill: #fff;
      }

      .cls-3 {
        fill: #fefefe;
      }
    </style>
  </defs>
  <g id="Capa_191" data-name="Capa 191">
    <g>
      <path d="M349.95.25c12.17-1.26,24.59,2.19,34.15,9.89,9.3,7.48,34.08,32.02,41.12,41.31,12.86,16.96,12.22,41.38-1.4,57.59l-66.69,67.15-.16,215.14c-2.11,23.01-20.19,41.05-43.16,43.16H43.16c-23.01-2.11-41.05-20.19-43.16-43.16V120.68c2.1-22.72,19.66-40.49,42.24-43.11l216.06-.21L326.41,9.69c6.89-5.01,14.98-8.55,23.54-9.44Z"/>
      <path class="cls-3" d="M226.98,108.59l-124.97,125.74-37.74,108.71c-2.29,11.98,4.49,20.06,16.47,20.43l119.42-30.98,125.74-124.97v183.79c0,3.57-6.86,10.99-10.85,11.46-89.53,1.57-179.35.17-268.99.7-8.2-.25-14.78-6.84-15.03-15.03V123.58c-.95-5.5,7.15-14.99,12.16-14.99h183.79Z"/>
      <polygon class="cls-1" points="311 68.9 365.6 123.49 190.61 298.66 135.83 243.88 311 68.9"/>
      <path class="cls-2" d="M351.84,31.24c4.61-.75,8.55-.02,12.38,2.67l37.53,38.12c6.66,12.86-5.47,20.85-13.42,28.73l-54.59-53.89c4.17-5.15,11.43-14.55,18.1-15.63Z"/>
      <polygon class="cls-2" points="158.12 312.25 103.82 325.84 120.3 274.44 158.12 312.25"/>
    </g>
  </g>
</svg>