<?xml version="1.0" encoding="UTF-8"?>
<svg id="Capa_2" data-name="Capa 2" xmlns="http://www.w3.org/2000/svg" viewBox="0 0 87 87.01">
  <defs>
    <style>
      .cls-1 {
        fill: #fff;
      }

      .cls-2 {
        fill: #5d6c00;
        stroke: #000;
        stroke-miterlimit: 10;
        stroke-width: .85px;
      }

      .cls-3 {
        fill: #fefefe;
      }
    </style>
  </defs>
  <g id="Capa_191" data-name="Capa 191">
    <g>
      <path d="M70.08.05c2.44-.25,4.92.44,6.84,1.98s6.82,6.41,8.23,8.27c2.57,3.4,2.45,8.29-.28,11.53l-13.35,13.45-.03,43.08c-.42,4.61-4.04,8.22-8.64,8.64H8.64c-4.61-.42-8.22-4.04-8.64-8.64V24.17c.42-4.55,3.94-8.11,8.46-8.63l43.27-.04,13.64-13.55c1.38-1,3-1.71,4.71-1.89Z"/>
      <path class="cls-3" d="M45.45,21.75l-25.02,25.18-7.56,21.77c-.46,2.4.9,4.02,3.3,4.09l23.91-6.2,25.18-25.02v36.8c0,.72-1.37,2.2-2.17,2.29-17.93.31-35.91.03-53.87.14-1.64-.05-2.96-1.37-3.01-3.01V24.75c-.19-1.1,1.43-3,2.44-3h36.8Z"/>
      <polygon class="cls-2" points="62.28 13.8 73.21 24.73 38.17 59.81 27.2 48.84 62.28 13.8"/>
      <path class="cls-1" d="M70.45,6.26c.92-.15,1.71,0,2.48.53l7.51,7.63c1.33,2.58-1.1,4.18-2.69,5.75l-10.93-10.79c.84-1.03,2.29-2.91,3.63-3.13Z"/>
      <polygon class="cls-1" points="31.66 62.53 20.79 65.25 24.09 54.96 31.66 62.53"/>
    </g>
  </g>
</svg>