<?xml version="1.0" encoding="UTF-8"?>
<svg id="Capa_2" data-name="Capa 2" xmlns="http://www.w3.org/2000/svg" viewBox="0 0 306.76 316.61">
  <defs>
    <style>
      .cls-1 {
        isolation: isolate;
      }

      .cls-2 {
        fill: #fdfdfd;
      }
    </style>
  </defs>
  <g id="MUSEO_1" data-name="MUSEO 1" class="cls-1">
    <g id="Footer">
      <path class="cls-2" d="M298.13,301.28c-6.01,7.44-19.51,10.15-28.7,11.02-54.05,5.12-191.15,6.37-243.67-.11-9.71-1.2-16.6-5.28-24.13-10.91L0,19.47C7.57,11.92,13.87,2.62,25.7,3.08c77.21,8.12,173.6-9.96,248.36,0,13.91,1.85,19.2,8.85,27.71,19.06-.84,81.09,9.48,174.47,2.63,254.97-.74,8.66-.44,16.96-6.27,24.17ZM187.32,87.49c-59.93-18.33-50.19,45.57-56.14,51.46-1.83,1.81-17.03-1.64-18.75-.03-1.02.97-1.01,27.15,0,28.12,1.68,1.61,17.08-1.67,18.79-.06,4.23,3.99-8.22,55.01,7.58,60.27,42.04,14.02,18.58-54.37,25.07-60.27,1.8-1.63,15.97,2.19,18.5-.21,1.02-.97,2.47-22.9,4.91-27.79-5.15-1.01-22.01,1.38-23.39,0-.99-1-1.01-27.13,0-28.11,1.45-1.42,18.23,1.03,23.44.05v-23.43Z"/>
    </g>
  </g>
</svg>