<?xml version="1.0" encoding="UTF-8"?>
<svg id="Capa_2" data-name="Capa 2" xmlns="http://www.w3.org/2000/svg" viewBox="0 0 65.59 67.7">
  <defs>
    <style>
      .cls-1 {
        isolation: isolate;
      }

      .cls-2 {
        fill: #fdfdfd;
      }
    </style>
  </defs>
  <g id="MUSEO_1" data-name="MUSEO 1" class="cls-1">
    <g id="Footer">
      <g>
        <path class="cls-2" d="M63.75,64.42c-1.29,1.59-4.17,2.17-6.14,2.36-11.56,1.09-40.87,1.36-52.1-.02-2.08-.26-3.55-1.13-5.16-2.33L0,4.16C1.62,2.55,2.97.56,5.5.66c16.51,1.74,37.12-2.13,53.11,0,2.97.4,4.1,1.89,5.92,4.08-.18,17.34,2.03,37.31.56,54.52-.16,1.85-.09,3.63-1.34,5.17ZM26.81,19.98c-4.39.69-7.24,2-8.33,6.66-1.09,4.66-1.38,16.19,3.26,18.88,3.9,2.26,18.81,2.31,21.79-1.84,2.12-2.95,2.3-16.44.78-19.74-2.1-4.55-13.1-4.66-17.5-3.97Z"/>
        <path class="cls-2" d="M24.76,22.92c2.77-.8,15.27-.81,16.8,1.78,1.19,2.01,1.01,16.58-.92,18.1-2.87,2.26-15.4,2.41-18.12-.07-2.86-2.62-2.74-18.38,2.24-19.81ZM29.79,26.89c-6.02,1.25-6.49,11-1.03,12.61,12.16,3.6,12.72-15.03,1.03-12.61Z"/>
        <path class="cls-2" d="M30.76,28.82c4.02-1.04,8.1,7.06,2.58,8.71-6.98,2.09-8.05-7.3-2.58-8.71Z"/>
      </g>
    </g>
  </g>
</svg>