<?xml version="1.0" encoding="UTF-8"?>
<svg id="Capa_2" data-name="Capa 2" xmlns="http://www.w3.org/2000/svg" viewBox="0 0 65.59 67.7">
  <defs>
    <style>
      .cls-1 {
        isolation: isolate;
      }

      .cls-2 {
        fill: #fdfdfd;
      }
    </style>
  </defs>
  <g id="MUSEO_1" data-name="MUSEO 1" class="cls-1">
    <g id="Footer">
      <path class="cls-2" d="M63.75,64.42c-1.29,1.59-4.17,2.17-6.14,2.36-11.56,1.09-40.87,1.36-52.1-.02-2.08-.26-3.55-1.13-5.16-2.33L0,4.16C1.62,2.55,2.97.56,5.5.66c16.51,1.74,37.12-2.13,53.11,0,2.97.4,4.1,1.89,5.92,4.08-.18,17.34,2.03,37.31.56,54.52-.16,1.85-.09,3.63-1.34,5.17ZM45.05,22.72c-4.33-.2-10.91-3.23-13.48,2.05-.63,1.3-.21,3.86-1.04,3.96-4.47.56-11.8-6.82-12.48-6.01.68,2.72-.89,6.75-.38,9.05.45,2.05,3.02,2.94,3.1,3.14.21.53-.77,1.77-.28,2.79.71,1.47,5.24,2.14,3.55,4-1.05,1.15-6.52.06-6.99,2,9.93,4.42,21.15,1.35,25.49-8.99,1.3-3.1.69-7.15,3.5-9.5.24-.75-3.22.11-.99-2.48Z"/>
    </g>
  </g>
</svg>