<?xml version="1.0" encoding="UTF-8"?>
<svg id="Capa_2" data-name="Capa 2" xmlns="http://www.w3.org/2000/svg" viewBox="0 0 306.76 316.61">
  <defs>
    <style>
      .cls-1 {
        isolation: isolate;
      }

      .cls-2 {
        fill: #fdfdfd;
      }
    </style>
  </defs>
  <g id="MUSEO_1" data-name="MUSEO 1" class="cls-1">
    <g id="Footer">
      <g>
        <path class="cls-2" d="M298.13,301.28c-6.01,7.44-19.51,10.15-28.7,11.02-54.05,5.12-191.15,6.37-243.67-.11-9.71-1.2-16.6-5.28-24.13-10.91L0,19.47C7.57,11.92,13.87,2.62,25.7,3.08c77.21,8.12,173.6-9.96,248.36,0,13.91,1.85,19.2,8.85,27.71,19.06-.84,81.09,9.48,174.47,2.63,254.97-.74,8.66-.44,16.96-6.27,24.17ZM125.39,93.43c-20.51,3.21-33.85,9.35-38.97,31.17-5.12,21.81-6.47,75.72,15.24,88.3,18.22,10.56,87.98,10.82,101.9-8.58,9.89-13.8,10.77-76.88,3.67-92.3-9.8-21.27-61.27-21.8-81.83-18.58Z"/>
        <path class="cls-2" d="M115.8,107.2c12.98-3.72,71.41-3.81,78.57,8.31,5.55,9.39,4.74,77.56-4.3,84.67-13.44,10.58-72.03,11.28-84.72-.32-13.38-12.24-12.81-85.98,10.45-92.65ZM139.3,125.75c-28.16,5.84-30.34,51.42-4.81,58.97,56.88,16.82,59.5-70.31,4.81-58.97Z"/>
        <path class="cls-2" d="M143.84,134.79c18.79-4.85,37.88,32.99,12.09,40.73-32.65,9.79-37.63-34.14-12.09-40.73Z"/>
      </g>
    </g>
  </g>
</svg>