<?xml version="1.0" encoding="UTF-8"?>
<svg id="Capa_2" data-name="Capa 2" xmlns="http://www.w3.org/2000/svg" viewBox="0 0 65.59 67.7">
  <defs>
    <style>
      .cls-1 {
        isolation: isolate;
      }

      .cls-2 {
        fill: #fdfdfd;
      }
    </style>
  </defs>
  <g id="MUSEO_1" data-name="MUSEO 1" class="cls-1">
    <g id="Footer">
      <path class="cls-2" d="M63.75,64.42c-1.29,1.59-4.17,2.17-6.14,2.36-11.56,1.09-40.87,1.36-52.1-.02-2.08-.26-3.55-1.13-5.16-2.33L0,4.16C1.62,2.55,2.97.56,5.5.66c16.51,1.74,37.12-2.13,53.11,0,2.97.4,4.1,1.89,5.92,4.08-.18,17.34,2.03,37.31.56,54.52-.16,1.85-.09,3.63-1.34,5.17ZM40.05,18.71c-12.81-3.92-10.73,9.74-12,11-.39.39-3.64-.35-4.01,0-.22.21-.22,5.8,0,6.01.36.34,3.65-.36,4.02-.01.91.85-1.76,11.76,1.62,12.89,8.99,3,3.97-11.63,5.36-12.89.38-.35,3.41.47,3.96-.05.22-.21.53-4.9,1.05-5.94-1.1-.22-4.71.29-5,0-.21-.21-.22-5.8,0-6.01.31-.3,3.9.22,5.01.01v-5.01Z"/>
    </g>
  </g>
</svg>