<?xml version="1.0" encoding="UTF-8"?>
<svg id="Capa_2" data-name="Capa 2" xmlns="http://www.w3.org/2000/svg" viewBox="0 0 79.7 80.36">
  <defs>
    <style>
      .cls-1 {
        fill: #f6f6f6;
      }

      .cls-2 {
        fill: #f9f9f9;
      }

      .cls-3 {
        fill: #fefefe;
      }

      .cls-4 {
        fill: #08311f;
      }
    </style>
  </defs>
  <g id="Capa_191" data-name="Capa 191">
    <g>
      <path class="cls-4" d="M58.53,25.19h13.26c.27,0,4.03,2.25,4.58,2.73,5.53,4.79,2.59,10.79,2.19,16.93-.24,3.69,1.89,6.91-1.54,11.19.01,4.78-3.12,15.81-6.13,19.48-5.78,7.05-21.91,5.11-29.74,2.25-4.72-1.73-10.91-6.5-15.12-7.74-2.4-.71-1.05,3.26-1.35,4.55H0V29.77h25.15c.91,0,11.82-11.51,12.74-12.86,4.91-7.21,2.71-21.04,15.83-15.71,9.28,3.77,6.64,16.52,4.81,24Z"/>
      <path class="cls-3" d="M24.69,64.52c-.91-9.42-.7-19.31-.48-28.88-.79-2.14,2.81-3.77,5.96-4.04.47-.52,1.2-1.15,1.83-1.83l2.74-2.74c2.45-2.38,6.93-5.43,8.62-8.3,2.34-3.96,3.64-18.68,10.07-11.77,6.06,6.51-2.96,16.55-.88,20.96.19.41,1.71,1.85,1.85,1.85h14.63c.55,0,3.56,1.64,4.15,2.24,4.35,4.42-.48,7.92-.75,11.18-.15,1.78,2.23,3.77,1.64,7.12-.36,2.02-2.34,2.69-2.63,3.87-.37,1.53,1.17,3.21.42,5.8-.59,2.04-3.82,3.94-3.91,4.98-.18,1.92,2.9,4.68-.71,7.84-2.87,2.52-14.19,2.1-18.1,1.54-8.54-1.23-16.1-7.96-24.47-9.82Z"/>
      <path class="cls-4" d="M30.18,31.59c-1.68,1.88-5.44,3.92-5.53,4.27-1.69,6.97,1.34,20.86.04,28.66-1.14-.31-.86-1.3-.96-2.21-.96-8.35.82-18.49.04-27.05-1.6-.21-.86,2.08-.91,3.19-.34,8.36.26,16.8,0,25.15-.66.74-4.64-2.09-5.48-2.74l-2.19.22c-5.6-5.38-5.14-.56-4.72,3.83.08.81-.13,1.59-.41,2.35,1.45,1.44,3.52,1.71,3.64,1.87,2.9,3.85-9.35,4.75-10.96,3.62-.48-12.69-.18-27.29.91-40.24,6.9.47,14.44-1.06,21.03.91-2.52-4.6,2.01-1.85,5.49-1.83Z"/>
      <path class="cls-1" d="M17.38,60.86c.43,5.51-2.15,6.82-7.32,6.4-4.74-4.72-1.72-11.45,3.91-9.93,1.86.51,2.45,2.79,3.41,3.52Z"/>
      <path class="cls-4" d="M2.74,31.59c.5,13.43.15,27.83-.91,41.15L.92,30.68c1.71-.56,1.56.68,1.82.91Z"/>
      <path class="cls-4" d="M3.66,32.51l-.91,40.24c-.18-.13-.88.13-.91,0l.91-41.15c.18.16.99.16.91.91Z"/>
      <path d="M34.75,27.02l-2.74,2.74c1.25-1.35,1.59-1.63,2.74-2.74Z"/>
      <rect class="cls-2" x="54.87" y="31.59" width="14.63" height=".91"/>
    </g>
  </g>
</svg>