<?xml version="1.0" encoding="UTF-8"?>
<svg id="Capa_2" data-name="Capa 2" xmlns="http://www.w3.org/2000/svg" viewBox="0 0 398 401.3">
  <defs>
    <style>
      .cls-1 {
        fill: #f6f6f6;
      }

      .cls-2 {
        fill: #f9f9f9;
      }

      .cls-3 {
        fill: #fefefe;
      }

      .cls-4 {
        fill: #08311f;
      }
    </style>
  </defs>
  <g id="Capa_191" data-name="Capa 191">
    <g>
      <path class="cls-4" d="M292.28,125.81h66.22c1.33,0,20.1,11.22,22.9,13.64,27.6,23.94,12.94,53.88,10.94,84.53-1.2,18.44,9.45,34.51-7.68,55.87.07,23.86-15.56,78.94-30.59,97.28-28.86,35.22-109.41,25.51-148.5,11.23-23.59-8.62-54.46-32.45-75.53-38.67-11.97-3.53-5.26,16.27-6.73,22.74H0v-223.77h125.59c4.52,0,59.04-57.47,63.64-64.23,24.53-36.03,13.52-105.05,79.05-78.46,46.35,18.81,33.16,82.51,24,119.86Z"/>
      <path class="cls-3" d="M123.3,322.18c-4.55-47.03-3.49-96.45-2.37-144.22-3.96-10.69,14.04-18.84,29.78-20.18,2.35-2.62,5.98-5.74,9.13-9.13l13.7-13.7c12.25-11.89,34.59-27.13,43.05-41.44,11.71-19.79,18.16-93.27,50.31-58.76,30.28,32.5-14.78,82.65-4.39,104.65.97,2.05,8.56,9.25,9.22,9.25h73.07c2.76,0,17.77,8.19,20.74,11.21,21.74,22.07-2.41,39.57-3.74,55.81-.73,8.9,11.16,18.81,8.21,35.54-1.77,10.07-11.68,13.41-13.13,19.33-1.87,7.63,5.84,16.04,2.09,28.95-2.96,10.19-19.05,19.66-19.54,24.89-.89,9.57,14.51,23.35-3.53,39.17-14.33,12.56-70.84,10.5-90.37,7.68-42.65-6.15-80.41-39.75-122.21-49.04Z"/>
      <path class="cls-4" d="M150.71,157.77c-8.41,9.37-27.18,19.58-27.6,21.31-8.45,34.79,6.67,104.18.2,143.1-5.67-1.53-4.29-6.5-4.81-11.01-4.79-41.71,4.08-92.35.2-135.1-7.97-1.07-4.29,10.37-4.52,15.91-1.71,41.73,1.28,83.89-.02,125.61-3.3,3.69-23.18-10.44-27.38-13.68l-10.95,1.11c-27.95-26.89-25.68-2.81-23.56,19.13.39,4.03-.66,7.96-2.03,11.73,7.24,7.2,17.59,8.53,18.2,9.34,14.48,19.25-46.71,23.7-54.74,18.06-2.4-63.36-.88-136.26,4.57-200.94,34.45,2.36,72.13-5.32,105,4.56-12.6-22.97,10.04-9.24,27.44-9.12Z"/>
      <path class="cls-1" d="M86.77,303.91c2.16,27.52-10.71,34.05-36.53,31.97-23.68-23.56-8.57-57.2,19.52-49.57,9.28,2.52,12.25,13.92,17.01,17.6Z"/>
      <path class="cls-4" d="M13.7,157.77c2.49,67.05.77,139-4.57,205.51l-4.54-210.05c8.53-2.78,7.79,3.41,9.11,4.54Z"/>
      <path class="cls-4" d="M18.27,162.34l-4.57,200.94c-.9-.63-4.42.63-4.57,0l4.57-205.51c.92.8,4.97.79,4.57,4.57Z"/>
      <path d="M173.54,134.94l-13.7,13.7c6.26-6.73,7.95-8.12,13.7-13.7Z"/>
      <rect class="cls-2" x="274.01" y="157.77" width="73.07" height="4.57"/>
    </g>
  </g>
</svg>