<?xml version="1.0" encoding="UTF-8"?>
<svg id="Capa_2" data-name="Capa 2" xmlns="http://www.w3.org/2000/svg" viewBox="0 0 306.76 316.61">
  <defs>
    <style>
      .cls-1 {
        isolation: isolate;
      }

      .cls-2 {
        fill: #fdfdfd;
      }
    </style>
  </defs>
  <g id="MUSEO_1" data-name="MUSEO 1" class="cls-1">
    <g id="Footer">
      <path class="cls-2" d="M298.13,301.28c-6.01,7.44-19.51,10.15-28.7,11.02-54.05,5.12-191.15,6.37-243.67-.11-9.71-1.2-16.6-5.28-24.13-10.91L0,19.47C7.57,11.92,13.87,2.62,25.7,3.08c77.21,8.12,173.6-9.96,248.36,0,13.91,1.85,19.2,8.85,27.71,19.06-.84,81.09,9.48,174.47,2.63,254.97-.74,8.66-.44,16.96-6.27,24.17ZM149.88,87.51v100.55c0,29.44-60.5,1.07-30.8-21.51,13.57-10.32,26.74,7.23,21.47-27.62-80.49-10.11-67.59,106.09,4.77,86.67,39-10.47,33.13-55.07,32.65-86.62l32.69,4.66c7.49-30.72-13.1-21.41-26.13-37.07-12.44-14.95.83-24.14-34.64-19.05Z"/>
    </g>
  </g>
</svg>