<?xml version="1.0" encoding="UTF-8"?>
<svg id="Capa_2" data-name="Capa 2" xmlns="http://www.w3.org/2000/svg" viewBox="0 0 306.76 316.61">
  <defs>
    <style>
      .cls-1 {
        isolation: isolate;
      }

      .cls-2 {
        fill: #fdfdfd;
      }
    </style>
  </defs>
  <g id="MUSEO_1" data-name="MUSEO 1" class="cls-1">
    <g id="Footer">
      <path class="cls-2" d="M298.13,301.28c-6.01,7.44-19.51,10.15-28.7,11.02-54.05,5.12-191.15,6.37-243.67-.11-9.71-1.2-16.6-5.28-24.13-10.91L0,19.47C7.57,11.92,13.87,2.62,25.7,3.08c77.21,8.12,173.6-9.96,248.36,0,13.91,1.85,19.2,8.85,27.71,19.06-.84,81.09,9.48,174.47,2.63,254.97-.74,8.66-.44,16.96-6.27,24.17ZM210.71,106.26c-20.25-.94-51.01-15.09-63.02,9.57-2.96,6.07-.99,18.04-4.88,18.52-20.91,2.62-55.17-31.91-58.37-28.11,3.2,12.71-4.15,31.59-1.78,42.3,2.12,9.61,14.12,13.73,14.5,14.69.98,2.48-3.59,8.28-1.31,13.05,3.3,6.89,24.5,10.01,16.6,18.72-4.89,5.39-30.5.3-32.68,9.36,46.42,20.69,98.92,6.31,119.19-42.07,6.08-14.52,3.21-33.44,16.39-44.42,1.14-3.48-15.05.49-4.63-11.62Z"/>
    </g>
  </g>
</svg>