<?xml version="1.0" encoding="UTF-8"?>
<svg id="Capa_2" data-name="Capa 2" xmlns="http://www.w3.org/2000/svg" viewBox="0 0 65.59 67.7">
  <defs>
    <style>
      .cls-1 {
        isolation: isolate;
      }

      .cls-2 {
        fill: #fdfdfd;
      }
    </style>
  </defs>
  <g id="MUSEO_1" data-name="MUSEO 1" class="cls-1">
    <g id="Footer">
      <g>
        <path class="cls-2" d="M63.75,64.42c-.91,1.12-3.64,2.14-5.16,2.33-11.17,1.39-40.59,1.11-52.1.02-2.52-.24-4.16-.7-6.14-2.36L0,4.16C1.62,2.55,2.97.56,5.5.66c16.51,1.74,37.12-2.13,53.11,0,2.97.4,4.1,1.89,5.92,4.08-.17,17.34,2.02,37.3.56,54.52-.16,1.85-.1,3.63-1.34,5.17ZM18.75,22.91c-4.12,1.21-3.85,17.84-.69,20.28,2.72,2.1,22.57,2.23,26.05,1.08,5.6-1.86,5.38-18.95.94-21.06-1.72-.82-24.07-.95-26.3-.3Z"/>
        <path class="cls-2" d="M37.05,32.72c-.69,1.76-8.11,5.89-8.99,4.98v-8.99s8.99,4.01,8.99,4.01Z"/>
      </g>
    </g>
  </g>
</svg>